<?xml version="1.0" standalone="no"?>
<!DOCTYPE svg PUBLIC "-//W3C//DTD SVG 20010904//EN"
 "http://www.w3.org/TR/2001/REC-SVG-20010904/DTD/svg10.dtd">
<svg version="1.0" xmlns="http://www.w3.org/2000/svg"
 width="738.000000pt" height="589.000000pt" viewBox="0 0 738.000000 589.000000"
 preserveAspectRatio="xMidYMid meet">

<g transform="translate(0.000000,589.000000) scale(0.100000,-0.100000)"
fill="#000000" stroke="none">
<path d="M2440 4948 c-10 -30 -26 -49 -49 -63 -19 -11 -52 -37 -72 -57 -47
-47 -58 -92 -35 -148 9 -22 16 -58 16 -79 0 -44 14 -60 62 -67 53 -8 94 24
112 87 22 73 38 93 86 109 23 7 50 24 59 36 10 13 20 21 23 19 2 -2 -1 -35 -6
-73 l-9 -69 41 -63 c29 -42 42 -73 42 -96 0 -42 17 -60 123 -128 45 -29 88
-65 96 -79 19 -35 27 -34 51 6 18 27 20 48 19 142 -2 103 0 113 27 165 25 48
29 66 28 135 0 44 -6 98 -12 120 l-12 41 -84 -9 c-95 -10 -156 -3 -156 18 0 8
5 17 11 21 16 10 -96 44 -148 46 -23 1 -55 -5 -72 -12 -28 -11 -35 -10 -71 14
-22 14 -43 26 -48 26 -4 0 -14 -19 -22 -42z m-28 -210 c-9 -9 -12 -7 -12 12 0
19 3 21 12 12 9 -9 9 -15 0 -24z"/>
<path d="M2138 4923 c-21 -5 -24 -41 -5 -67 7 -10 19 -15 28 -11 22 8 61 63
54 75 -6 10 -45 12 -77 3z"/>
<path d="M3741 4853 l-204 -3 45 -29 c57 -36 80 -87 71 -160 -7 -61 2 -75 61
-90 85 -21 116 -69 116 -179 0 -46 4 -58 29 -83 32 -32 71 -38 115 -17 37 16
51 42 102 185 54 154 62 167 116 191 65 29 82 54 82 117 0 30 -3 57 -7 62 -9
8 -231 11 -526 6z"/>
<path d="M3337 4759 c-21 -12 -94 -159 -103 -207 -8 -43 6 -57 54 -53 29 2 44
-3 63 -22 53 -53 94 -60 129 -22 23 25 24 25 7 78 -9 30 -17 76 -17 103 -1 58
-15 88 -56 115 -33 21 -51 23 -77 8z"/>
<path d="M4536 4633 c4 -16 13 -50 21 -78 24 -91 37 -154 31 -160 -3 -3 -13
-3 -22 1 -11 4 -16 18 -16 45 0 21 -4 39 -8 39 -21 0 -44 -42 -51 -92 -4 -29
-13 -64 -20 -77 -12 -22 -11 -27 9 -43 34 -28 54 -19 58 25 2 23 8 37 17 37
14 0 53 -38 97 -92 20 -26 43 -39 90 -54 56 -16 74 -29 167 -119 155 -150 288
-337 375 -527 34 -74 36 -94 7 -65 -8 8 -8 2 2 -23 14 -35 13 -60 -3 -60 -4 0
-22 23 -40 50 -41 64 -50 58 -16 -9 29 -56 32 -71 14 -71 -7 0 -32 32 -56 70
-24 39 -45 70 -47 70 -2 0 9 -28 25 -62 53 -111 34 -121 -35 -18 -26 39 -49
70 -51 70 -2 0 9 -27 26 -60 33 -66 36 -80 17 -80 -7 0 -27 24 -44 53 -57 92
-77 108 -39 30 41 -82 41 -83 22 -83 -7 0 -35 34 -61 75 -27 41 -50 73 -52 72
-1 -2 13 -32 31 -67 33 -61 36 -80 16 -80 -5 0 -29 32 -54 70 -25 39 -48 70
-51 70 -3 0 10 -29 27 -65 30 -60 33 -86 9 -71 -6 4 -31 38 -56 76 -24 39 -47
70 -51 70 -3 0 11 -29 31 -65 20 -36 35 -71 33 -77 -3 -7 -23 21 -46 62 -22
41 -63 107 -90 145 -61 87 -187 223 -198 213 -4 -5 22 -38 57 -75 36 -38 84
-93 107 -124 43 -57 132 -207 132 -221 0 -25 -23 2 -65 75 -72 124 -224 311
-240 295 -4 -4 21 -38 55 -75 79 -86 200 -263 200 -293 0 -6 -83 -10 -210 -10
l-210 0 0 23 c0 20 4 22 33 19 41 -5 87 29 87 64 0 18 -5 25 -17 23 -10 -1
-39 1 -65 5 -43 7 -48 11 -48 35 0 70 47 294 60 286 13 -8 5 78 -10 106 -18
32 -82 109 -92 109 -4 0 -8 -18 -8 -40 0 -29 -4 -40 -15 -40 -10 0 -15 10 -15
30 0 34 -10 38 -33 12 -24 -26 -21 -46 12 -81 47 -50 56 -90 41 -188 -6 -46
-16 -83 -21 -83 -5 0 -9 -12 -9 -26 0 -28 -29 -84 -43 -84 -6 0 -7 36 -5 83
l5 82 -17 -51 c-10 -28 -21 -71 -25 -95 l-8 -44 -17 45 c-22 55 -61 123 -67
116 -3 -2 0 -28 6 -56 6 -28 11 -62 11 -76 0 -14 11 -50 25 -81 27 -58 29 -83
8 -91 -9 -2 -13 6 -13 25 0 37 -15 61 -23 39 -4 -9 -11 -16 -18 -16 -8 0 -10
26 -8 85 2 47 3 85 2 85 0 0 -11 -17 -23 -37 l-22 -38 -22 55 -21 55 -5 -82
c-3 -46 -11 -88 -18 -95 -9 -9 -12 -4 -12 24 0 37 -18 98 -28 98 -4 0 -5 -25
-4 -55 2 -31 0 -55 -6 -55 -12 0 -22 58 -23 140 0 56 -2 61 -11 38 -5 -16 -13
-28 -17 -28 -4 0 -12 12 -18 28 -10 24 -11 20 -12 -38 -1 -64 -26 -140 -50
-154 -14 -9 -15 72 -1 110 21 55 -1 35 -28 -26 l-29 -63 -7 42 c-9 60 -22 50
-29 -21 -3 -34 -10 -64 -16 -66 -6 -2 -11 -21 -11 -43 0 -21 -3 -39 -7 -39 -5
0 -6 41 -4 91 3 81 1 91 -13 86 -11 -4 -16 -1 -16 11 0 9 -5 35 -12 57 l-12
40 -7 -76 c-3 -41 -12 -86 -20 -100 -13 -23 -14 -22 -19 26 -3 28 -12 61 -20
75 l-14 25 -6 -30 c-4 -16 -16 -48 -28 -70 l-21 -40 -1 40 c0 52 17 113 42
148 11 16 18 31 15 33 -5 5 -66 -68 -94 -112 -11 -17 -12 -16 -13 11 -1 17 -5
39 -10 50 -7 19 -8 18 -13 -5 -3 -14 -9 -43 -12 -65 -3 -22 -9 -49 -12 -60 -6
-18 -7 -18 -14 5 -12 43 -10 115 6 166 8 27 15 51 15 53 0 10 -51 -45 -76 -81
l-28 -39 -13 23 c-12 21 -13 20 -7 -15 5 -27 1 -50 -11 -77 -19 -43 -35 -44
-35 -2 0 15 -9 45 -19 67 l-18 40 -7 -40 c-4 -22 -14 -62 -22 -88 l-16 -48
-61 3 c-71 3 -70 1 -35 93 20 53 23 82 26 256 l3 196 -53 31 c-29 16 -64 42
-77 56 -40 43 -42 30 -5 -48 19 -41 34 -81 34 -88 -1 -7 -34 -37 -76 -67 -139
-101 -276 -261 -365 -425 -49 -91 -66 -88 -19 3 16 34 28 61 25 61 -3 0 -26
-31 -51 -70 -25 -38 -49 -70 -53 -70 -21 0 -18 19 14 78 20 35 34 66 32 68 -2
2 -25 -30 -52 -71 -26 -41 -54 -75 -61 -75 -19 0 -19 1 22 83 38 78 18 62 -39
-30 -30 -50 -57 -69 -57 -40 0 6 14 36 30 66 17 30 28 56 26 58 -2 2 -24 -28
-50 -67 -67 -102 -93 -93 -36 13 43 82 37 82 -16 2 -57 -86 -60 -89 -73 -81
-7 5 0 28 20 68 17 33 28 62 26 64 -2 3 -22 -25 -43 -60 -58 -97 -89 -85 -39
14 33 64 24 64 -16 0 -17 -27 -34 -50 -39 -50 -17 0 -19 32 -5 60 19 37 19 50
1 24 -8 -10 -17 -16 -20 -13 -11 10 125 266 191 359 102 144 322 358 463 451
13 8 19 18 14 22 -12 7 -134 -85 -242 -181 -84 -74 -209 -221 -283 -331 -28
-42 -80 -136 -115 -208 -35 -73 -69 -133 -74 -133 -15 0 -14 4 49 136 100 208
212 365 372 520 89 85 234 204 250 204 5 0 9 5 9 10 0 18 -16 10 -91 -45 -269
-201 -474 -465 -595 -763 -38 -94 -48 -110 -81 -130 -45 -27 -111 -25 -146 4
-12 10 -16 12 -9 4 6 -8 12 -18 12 -22 0 -4 -78 -8 -172 -8 -136 1 -177 4
-192 15 -11 8 -41 15 -66 15 -53 0 -80 21 -79 61 0 22 1 23 9 4 4 -12 15 -27
24 -34 14 -12 16 -10 17 20 0 29 19 109 44 187 16 50 -75 17 -122 -45 -25 -33
-28 -44 -28 -115 l0 -78 -30 6 c-16 3 -39 15 -50 25 -17 17 -18 22 -6 51 20
51 22 62 12 77 -12 18 -48 5 -68 -25 -8 -14 -16 -43 -16 -64 0 -46 -7 -48 -67
-24 -42 17 -53 34 -22 34 24 0 52 31 52 56 0 12 -3 15 -8 7 -5 -8 -12 -3 -20
16 -14 31 -49 51 -90 51 -26 1 -26 1 -7 16 12 9 34 14 52 12 21 -3 30 -1 23 6
-19 19 -71 10 -98 -18 -25 -24 -27 -33 -27 -102 0 -68 3 -78 24 -95 14 -11 39
-19 62 -19 37 0 39 -2 39 -30 l0 -30 248 -2 247 -2 -250 -6 c-137 -3 967 -6
2455 -6 1488 0 2599 3 2470 6 l-235 6 233 2 232 2 0 30 c0 29 1 30 49 30 64 0
79 6 96 41 49 94 -19 230 -100 199 -30 -11 -33 -20 -5 -13 25 7 70 -4 70 -17
0 -6 -9 -10 -20 -10 -32 0 -78 -27 -85 -50 -3 -11 -11 -20 -16 -20 -16 0 -10
-26 11 -45 11 -10 28 -15 39 -12 36 9 12 -21 -30 -37 -62 -25 -69 -22 -69 28
0 67 -68 129 -85 76 -3 -10 1 -33 9 -49 9 -17 16 -37 16 -45 0 -18 -33 -42
-71 -51 l-25 -6 4 63 c3 51 -1 72 -20 108 -25 49 -77 90 -116 90 -21 0 -23 -3
-17 -22 25 -78 44 -158 45 -188 l1 -35 24 30 c23 28 25 28 25 8 0 -30 -37 -53
-85 -53 -23 0 -50 -7 -61 -15 -15 -11 -56 -14 -191 -15 -95 0 -173 3 -173 8 0
4 7 16 15 26 8 11 15 30 15 43 0 28 -33 63 -57 62 -14 0 -15 -2 -3 -6 28 -10
50 -36 50 -58 0 -66 -92 -95 -164 -53 -32 19 -43 35 -70 103 -130 329 -366
626 -653 823 -99 67 -89 51 -128 216 -15 63 -49 146 -60 146 -3 0 -2 -12 1
-27z m45 -263 c10 -6 19 -17 19 -25 0 -12 -5 -12 -25 -3 -14 6 -25 17 -25 25
0 16 5 16 31 3z m374 -294 c174 -175 276 -320 373 -534 46 -102 46 -102 33
-102 -6 0 -39 59 -75 130 -108 217 -253 413 -410 554 -42 37 -81 77 -87 88
-23 43 38 -7 166 -136z m-1975 -201 c0 -8 -21 -29 -47 -47 -63 -43 -219 -198
-272 -271 -23 -32 -60 -92 -83 -132 -37 -71 -58 -92 -58 -62 0 21 92 169 148
239 62 77 167 180 247 242 33 25 61 46 63 46 1 0 2 -7 2 -15z m25 -148 c19
-130 16 -152 -40 -269 -20 -41 -32 -80 -29 -90 5 -17 -7 -18 -180 -18 -123 0
-186 4 -186 10 0 39 117 207 214 308 64 66 187 172 201 172 1 0 10 -51 20
-113z m297 -259 c-6 -18 -14 -52 -17 -75 -5 -34 -11 -43 -27 -43 -17 0 -19 4
-14 28 9 37 57 134 63 128 3 -2 0 -20 -5 -38z m229 -38 l-10 -25 0 27 c-1 14
2 35 6 45 7 17 8 17 11 -2 1 -12 -2 -32 -7 -45z m698 -29 l1 -34 23 20 c39 35
60 35 25 0 -20 -20 -44 -34 -61 -35 -27 -2 -28 0 -22 36 3 20 9 48 12 62 5 23
6 24 13 5 5 -11 9 -35 9 -54z m-1005 -28 c4 -14 3 -23 -3 -23 -9 0 -31 61 -31
85 1 12 25 -32 34 -62z m111 15 c7 -35 5 -38 -15 -38 -16 0 -20 4 -16 16 3 9
6 30 6 47 0 40 16 24 25 -25z m53 -13 c-12 -27 -28 -34 -28 -12 0 14 20 37 32
37 4 0 2 -11 -4 -25z"/>
<path d="M3102 4488 c-5 -7 -17 -30 -26 -51 -14 -35 -14 -41 0 -69 12 -23 14
-47 9 -101 -5 -66 -3 -76 22 -122 36 -64 61 -67 87 -8 11 24 28 45 39 49 26 8
47 63 47 123 0 47 -3 52 -44 86 -25 20 -54 52 -65 71 -21 35 -50 44 -69 22z"/>
<path d="M3376 4229 c-3 -17 -6 -47 -6 -66 0 -18 -9 -52 -20 -73 -17 -34 -18
-40 -5 -40 26 0 16 -18 -17 -29 -51 -18 -25 -23 35 -8 50 13 63 13 143 -4 99
-21 184 -25 184 -9 0 25 -55 60 -112 71 -68 14 -95 39 -105 103 -12 76 -84
117 -97 55z"/>
<path d="M3620 3748 c0 -11 8 -18 20 -18 13 0 18 5 14 15 -9 24 33 19 46 -6
20 -37 -28 -67 -58 -37 -9 9 -12 9 -12 0 0 -6 9 -16 21 -22 16 -9 26 -8 45 5
47 31 19 87 -42 82 -25 -1 -34 -7 -34 -19z"/>
<path d="M3690 3555 c-6 -8 -10 -21 -8 -31 2 -11 7 -6 15 15 13 34 11 38 -7
16z"/>
<path d="M1764 3466 c-8 -14 -14 -35 -11 -48 4 -22 4 -21 6 3 1 26 22 51 51
62 10 4 7 6 -7 6 -13 1 -29 -9 -39 -23z"/>
<path d="M5496 3464 c-10 -26 12 -56 40 -52 32 4 27 23 -6 23 -20 0 -25 5 -23
23 3 26 -2 29 -11 6z"/>
<path d="M1860 3441 c0 -9 -9 -11 -31 -6 -24 5 -30 4 -27 -6 7 -21 57 -24 64
-4 4 9 4 19 0 22 -3 4 -6 1 -6 -6z"/>
<path d="M765 3365 c-38 -37 -33 -55 14 -55 46 0 62 17 35 37 -19 14 -19 14 0
29 19 14 19 14 -3 14 -12 0 -33 -11 -46 -25z"/>
<path d="M6533 3383 c-7 -2 -13 -9 -13 -14 0 -6 8 -6 19 1 14 7 22 7 27 -1 7
-12 -12 -29 -33 -29 -7 0 -13 -7 -13 -15 0 -12 13 -15 55 -15 63 0 69 11 30
54 -23 25 -45 31 -72 19z"/>
<path d="M840 3320 l0 -50 55 0 55 0 0 50 0 50 -55 0 -55 0 0 -50z"/>
<path d="M6400 3320 l0 -50 50 0 50 0 0 50 0 50 -50 0 -50 0 0 -50z"/>
<path d="M2351 3152 c-19 -9 -44 -30 -55 -45 -20 -27 -21 -42 -21 -264 0 -212
2 -236 18 -247 9 -7 17 -18 17 -23 0 -17 35 -43 68 -49 25 -5 32 -12 32 -29 0
-17 9 -26 30 -34 17 -5 30 -15 30 -20 0 -13 -32 -30 -47 -24 -6 2 -19 -7 -29
-21 l-16 -26 -707 0 -708 0 5 -30 c3 -21 11 -32 27 -36 58 -15 101 20 53 44
-20 9 -17 11 25 11 l48 1 -21 -27 c-19 -25 -20 -28 -5 -31 9 -2 23 2 32 10 13
10 17 10 20 1 8 -22 73 -15 93 9 13 17 28 23 60 23 32 0 47 -6 60 -23 22 -27
100 -33 100 -7 0 13 124 15 1060 15 1053 0 1060 0 1060 20 0 20 -7 20 -545 20
-300 0 -545 3 -545 8 0 4 4 14 10 22 5 9 5 19 -2 27 -7 9 -7 13 1 13 20 0 12
28 -14 48 -33 26 -32 32 8 32 46 0 99 31 119 71 11 21 18 56 18 92 l0 58 -52
-3 -52 -3 -1 -43 c-1 -56 -23 -77 -77 -76 -66 2 -68 10 -68 230 0 216 2 224
68 224 59 0 80 -21 76 -75 l-3 -45 56 0 56 0 -5 68 c-6 82 -25 115 -79 136
-53 22 -155 21 -198 -2z m219 -462 c0 -5 -2 -10 -4 -10 -3 0 -8 5 -11 10 -3 6
-1 10 4 10 6 0 11 -4 11 -10z"/>
<path d="M2841 3158 c-41 -16 -69 -51 -81 -104 -13 -55 -12 -363 1 -424 16
-73 55 -101 154 -107 91 -6 137 8 169 50 32 44 39 94 13 101 -20 5 -19 30 1
32 7 1 15 2 19 3 3 0 -2 10 -11 20 -10 10 -13 21 -8 22 18 7 19 69 1 69 -6 0
-9 -6 -6 -13 3 -7 -3 -13 -14 -14 -33 -3 -29 13 7 27 25 10 33 18 28 29 -3 9
-5 23 -4 31 2 8 3 53 4 100 0 94 -15 137 -60 167 -33 21 -166 28 -213 11z
m152 -106 c14 -15 17 -47 18 -203 0 -101 -2 -191 -6 -201 -11 -28 -59 -42 -99
-28 -19 6 -37 18 -40 26 -3 9 -6 98 -6 198 0 213 4 226 74 226 29 0 48 -6 59
-18z m87 -307 c0 -8 -2 -15 -4 -15 -2 0 -6 7 -10 15 -3 8 -1 15 4 15 6 0 10
-7 10 -15z m-2 -100 c-3 -3 -9 2 -12 12 -6 14 -5 15 5 6 7 -7 10 -15 7 -18z"/>
<path d="M941 2858 c1 -166 3 -307 6 -313 2 -7 25 -13 54 -14 l51 -1 -2 83
c-3 139 -10 127 65 127 96 0 152 35 163 102 10 64 5 214 -8 239 -34 66 -71 79
-216 79 l-114 0 1 -302z m222 184 c27 -23 25 -164 -3 -192 -22 -22 -94 -28
-105 -9 -6 9 -7 42 -6 171 1 45 2 47 34 50 39 4 57 0 80 -20z m-43 -260 c0
-15 -2 -15 -10 -2 -13 20 -13 33 0 25 6 -3 10 -14 10 -23z"/>
<path d="M1410 3040 c-1 -66 -1 -192 -1 -280 0 -88 0 -176 1 -195 l0 -35 50 0
50 0 0 115 c0 63 4 115 8 115 5 0 26 -36 46 -80 21 -44 42 -82 46 -85 5 -3 11
-19 15 -35 6 -29 9 -30 61 -30 30 0 54 3 54 8 0 4 -23 54 -50 111 -28 57 -50
106 -50 110 0 4 16 15 35 24 55 26 70 66 70 184 0 87 -3 106 -21 130 -37 51
-77 63 -201 63 l-113 0 0 -120z m220 1 c5 -11 10 -49 10 -84 0 -80 -17 -100
-81 -95 l-44 3 -3 98 -3 97 55 0 c44 0 57 -4 66 -19z"/>
<path d="M1870 2846 l1 -315 145 0 144 -1 0 45 0 44 -87 3 -88 3 -6 70 c-7 92
0 105 56 105 36 0 45 4 46 18 0 9 2 29 4 44 3 26 2 27 -48 30 l-52 3 -5 55
c-3 30 -3 67 -1 82 3 27 4 27 85 30 l81 3 3 48 3 47 -141 0 -141 0 1 -314z"/>
<path d="M3533 3008 c3 -84 5 -157 5 -163 0 -5 -2 -79 -5 -162 l-4 -153 118 0
c137 0 177 14 205 70 26 50 27 434 2 486 -18 38 -63 67 -88 58 -9 -3 -16 -1
-16 5 0 7 -36 11 -111 11 l-110 0 4 -152z m19 110 c-7 -7 -12 -8 -12 -2 0 6 3
14 7 17 3 4 9 5 12 2 2 -3 -1 -11 -7 -17z m199 -75 c11 -12 14 -59 14 -200 0
-182 0 -185 -24 -204 -29 -24 -101 -27 -102 -4 0 8 0 56 0 105 0 50 0 142 0
205 l1 115 49 0 c33 0 53 -5 62 -17z m-186 -223 c-3 -5 -11 -10 -16 -10 -6 0
-7 5 -4 10 3 6 11 10 16 10 6 0 7 -4 4 -10z"/>
<path d="M4010 2845 l0 -315 29 0 c16 0 32 6 34 13 4 10 6 10 6 0 1 -10 30
-13 111 -13 l110 0 0 45 0 45 -89 0 c-77 0 -90 3 -95 18 -8 27 -10 138 -2 151
4 6 29 11 57 11 l49 0 0 45 0 45 -50 0 c-48 0 -49 1 -55 33 -4 17 -5 55 -3 82
l3 50 80 3 c48 2 82 8 87 15 4 7 8 29 8 50 l0 37 -140 0 -140 0 0 -315z"/>
<path d="M4690 2845 l0 -315 145 0 145 0 0 45 0 45 -89 0 c-75 0 -90 3 -96 17
-3 10 -6 76 -5 148 1 71 1 185 1 253 l-1 122 -50 0 -49 0 -1 -315z m54 159 c5
-14 4 -15 -9 -4 -17 14 -19 20 -6 20 5 0 12 -7 15 -16z"/>
<path d="M5074 3146 c-3 -8 -4 -149 -2 -313 l3 -298 143 -3 142 -3 0 30 c0 16
3 36 6 45 5 13 -8 16 -88 18 l-93 3 -6 70 c-7 91 -1 103 58 107 l47 3 4 42 3
42 -53 3 -53 3 -3 82 -3 82 83 3 83 3 3 48 3 47 -136 0 c-108 0 -137 -3 -141
-14z"/>
<path d="M5480 2845 l0 -315 49 0 49 0 3 38 c8 78 -2 223 -14 216 -8 -5 -8 -2
1 7 14 16 17 63 2 54 -5 -3 -10 -1 -10 4 0 6 4 11 10 11 5 0 7 6 4 14 -3 8 0
17 5 21 6 3 9 10 6 14 -2 5 -5 63 -6 130 l-1 121 -49 0 -49 0 0 -315z m55 -65
c-3 -5 -10 -10 -16 -10 -5 0 -9 5 -9 10 0 6 7 10 16 10 8 0 12 -4 9 -10z"/>
<path d="M5682 3113 l3 -48 57 0 c31 0 59 -3 63 -7 4 -3 6 -124 6 -268 l-1
-261 52 3 53 3 1 150 c0 83 1 201 2 263 l2 112 60 0 60 0 0 50 0 50 -181 0
-180 0 3 -47z"/>
<path d="M6140 2846 l0 -314 145 -1 145 -1 0 44 0 45 -92 3 -93 3 0 85 0 85
53 3 52 3 0 45 0 44 -50 0 c-58 0 -63 9 -58 105 l3 60 80 3 c48 2 82 8 87 15
4 7 8 29 8 50 l0 37 -140 0 -140 0 0 -314z"/>
<path d="M3583 2465 c-15 -10 -23 -27 -23 -45 0 -38 15 -42 145 -38 l100 3 3
30 c4 52 -8 59 -110 63 -74 3 -98 0 -115 -13z"/>
<path d="M3790 2350 c0 -20 7 -20 1061 -20 939 0 1060 -2 1055 -15 -4 -12 4
-15 40 -15 35 0 50 5 64 22 13 17 28 23 60 23 32 0 47 -6 60 -23 20 -24 85
-31 93 -9 3 9 7 9 20 -1 9 -8 23 -12 32 -10 15 3 14 6 -5 31 l-21 27 48 -1
c39 0 44 -2 26 -9 -13 -6 -23 -18 -23 -30 0 -16 6 -20 34 -20 31 0 34 3 38 35
l4 35 -1293 0 c-1286 0 -1293 0 -1293 -20z"/>
<path d="M840 2300 l0 -50 55 0 55 0 0 50 0 50 -55 0 -55 0 0 -50z"/>
<path d="M6400 2300 l0 -50 50 0 50 0 0 50 0 50 -50 0 -50 0 0 -50z"/>
<path d="M1010 2266 c0 -18 39 -66 54 -66 6 0 17 18 23 40 l10 40 -43 0 c-31
0 -44 -4 -44 -14z"/>
<path d="M1140 2271 c0 -29 26 -74 51 -86 15 -8 30 -15 32 -15 2 0 10 18 17
40 17 52 3 70 -56 70 -24 0 -44 -4 -44 -9z"/>
<path d="M1380 2248 c0 -29 -1 -30 -18 -15 -44 40 -84 0 -57 -57 41 -85 138
-65 165 35 15 55 6 69 -46 69 -43 0 -44 -1 -44 -32z"/>
<path d="M5894 2266 c-7 -17 12 -85 29 -107 36 -46 86 -50 122 -8 47 57 16
131 -35 84 -17 -15 -19 -15 -25 4 -3 12 -3 25 0 31 4 6 -11 10 -40 10 -30 0
-47 -5 -51 -14z"/>
<path d="M6130 2265 c-10 -12 -10 -24 -1 -55 6 -22 16 -40 21 -40 19 0 68 55
74 83 6 26 5 27 -38 27 -27 0 -48 -6 -56 -15z"/>
<path d="M6274 2264 c3 -9 9 -27 12 -40 8 -31 27 -30 53 2 33 42 27 54 -25 54
-38 0 -45 -3 -40 -16z"/>
<path d="M1904 2257 c46 -29 66 -56 91 -122 42 -108 131 -273 201 -371 275
-385 668 -641 1129 -735 96 -19 113 -26 134 -52 l24 -29 22 29 c28 35 24 43
-22 43 -20 0 -92 12 -161 26 -456 94 -840 349 -1124 745 -84 118 -214 379
-188 379 5 0 39 -60 75 -132 146 -291 316 -493 571 -679 225 -162 567 -293
824 -315 113 -9 149 -21 160 -50 15 -37 2 -71 -29 -82 -34 -12 -61 1 -61 29 0
18 4 20 30 14 23 -5 30 -3 30 9 0 21 -53 22 -70 1 -19 -22 -4 -64 25 -71 64
-16 114 37 93 98 -15 43 -42 55 -158 68 -603 67 -1116 425 -1389 966 -51 101
-69 160 -36 118 14 -17 14 -16 1 13 -15 30 -13 63 4 63 4 0 22 -22 40 -50 18
-27 34 -50 35 -50 2 0 -7 25 -21 55 -27 63 -29 75 -11 75 7 0 27 -25 45 -55
47 -78 56 -76 19 5 l-32 70 -135 -1 c-109 0 -131 -3 -116 -12z"/>
<path d="M2215 2222 c14 -26 37 -61 51 -77 20 -25 18 -17 -13 48 -21 42 -43
77 -51 77 -9 0 -6 -14 13 -48z"/>
<path d="M2260 2265 c0 -3 9 -22 19 -43 21 -39 71 -110 71 -99 0 15 -72 147
-80 147 -6 0 -10 -2 -10 -5z"/>
<path d="M2320 2262 c0 -11 78 -132 85 -132 3 0 -11 32 -30 70 -31 61 -55 88
-55 62z"/>
<path d="M2390 2257 c0 -15 76 -137 85 -137 3 0 -12 34 -32 75 -35 71 -53 92
-53 62z"/>
<path d="M2450 2259 c0 -13 81 -142 86 -137 1 2 -13 35 -32 73 -34 67 -54 91
-54 64z"/>
<path d="M2500 2258 c0 -22 78 -156 134 -231 182 -245 445 -417 753 -494 98
-25 126 -27 293 -28 161 0 198 3 285 24 263 63 482 187 666 378 115 119 248
321 236 356 -2 7 -16 -13 -32 -43 -123 -242 -357 -468 -600 -580 -195 -89
-311 -114 -545 -114 -238 -1 -358 23 -555 113 -235 107 -459 319 -585 554 -42
77 -50 88 -50 65z"/>
<path d="M2547 2263 c-3 -4 13 -40 36 -78 213 -367 584 -604 997 -639 89 -8
76 8 -15 19 -415 48 -768 276 -964 625 -49 86 -47 84 -54 73z"/>
<path d="M2902 2262 l-72 -3 39 -57 c116 -172 286 -299 499 -376 119 -42 112
-50 112 117 l0 144 41 82 c22 46 39 84 37 87 -5 4 -559 10 -656 6z"/>
<path d="M3843 2262 c-18 -2 -33 -8 -33 -13 0 -5 17 -42 38 -81 l37 -72 3
-148 c3 -114 6 -148 17 -148 29 0 155 45 226 81 147 73 282 190 371 322 l39
57 -28 0 c-179 3 -646 4 -670 2z"/>
<path d="M4782 2215 c-112 -220 -338 -431 -585 -545 -109 -50 -196 -74 -362
-101 -71 -12 -132 -23 -135 -26 -12 -12 173 10 267 32 251 60 457 177 636 364
103 108 225 292 214 324 -2 7 -18 -15 -35 -48z"/>
<path d="M4861 2190 c-23 -44 -39 -80 -37 -80 8 0 96 137 96 149 0 30 -23 3
-59 -69z"/>
<path d="M4927 2195 c-20 -41 -35 -75 -33 -75 9 0 86 123 86 136 0 31 -17 10
-53 -61z"/>
<path d="M5026 2262 c-25 -40 -75 -142 -67 -138 11 7 78 108 87 130 6 16 -11
23 -20 8z"/>
<path d="M5055 2198 c-32 -66 -33 -70 -10 -43 24 28 65 97 65 110 0 3 -4 5
-10 5 -5 0 -26 -33 -45 -72z"/>
<path d="M5140 2246 c-5 -14 -21 -49 -35 -78 l-27 -53 26 30 c14 17 37 51 51
78 22 39 23 47 10 47 -8 0 -20 -11 -25 -24z"/>
<path d="M5183 2200 c-17 -39 -30 -70 -28 -70 1 0 20 27 41 60 22 33 45 60 52
60 18 0 15 -15 -14 -71 -34 -67 -24 -73 15 -10 17 28 35 51 40 51 17 0 18 -24
4 -60 -12 -32 -12 -33 2 -16 54 70 -43 -149 -122 -273 -60 -94 -163 -221 -253
-312 -274 -275 -623 -443 -1028 -496 -159 -20 -186 -35 -186 -98 0 -44 30 -75
74 -75 51 0 79 52 44 81 -13 11 -14 9 -8 -16 9 -34 -13 -55 -52 -47 -49 9 -58
88 -13 112 11 6 61 16 111 21 294 30 567 129 813 294 264 178 460 403 610 703
36 72 70 132 75 132 14 0 -23 -89 -81 -199 -256 -480 -708 -820 -1233 -926
-68 -14 -140 -25 -159 -25 -44 0 -50 -9 -27 -38 23 -28 26 -27 53 2 17 19 43
28 117 41 302 53 640 221 874 435 230 212 364 411 497 738 5 12 25 32 44 43
19 12 35 23 35 25 0 2 -60 4 -132 4 l-133 0 -32 -70z"/>
<path d="M1766 2238 c-22 -31 -20 -74 4 -98 31 -31 100 -25 100 9 -1 14 -2 14
-11 -1 -13 -24 -61 -23 -82 0 -23 25 -21 61 5 89 12 13 16 23 10 23 -6 0 -18
-10 -26 -22z"/>
<path d="M5588 2237 c27 -29 28 -61 2 -87 -35 -35 -100 -17 -84 24 7 19 16 20
31 5 12 -12 33 -4 33 12 0 18 -59 10 -70 -10 -13 -25 -13 -27 6 -45 37 -38
114 0 114 55 0 28 -25 69 -42 69 -6 0 -2 -10 10 -23z"/>
<path d="M1800 2191 c0 -17 20 -23 36 -10 13 10 17 10 26 -2 8 -12 9 -12 5 1
-4 17 -67 27 -67 11z"/>
<path d="M3530 1935 l0 -105 27 -11 c45 -17 144 -20 208 -7 l60 13 3 108 3
107 -151 0 -150 0 0 -105z m130 67 c0 -13 -12 -22 -22 -16 -10 6 -1 24 13 24
5 0 9 -4 9 -8z m74 -13 c-3 -5 -10 -7 -15 -3 -5 3 -7 10 -3 15 3 5 10 7 15 3
5 -3 7 -10 3 -15z m-34 -38 c0 -17 5 -33 10 -36 6 -3 10 -19 10 -34 0 -25 -4
-28 -30 -27 -22 1 -31 7 -35 25 -3 13 -1 29 4 34 6 6 11 24 11 39 0 18 5 28
15 28 10 0 15 -10 15 -29z"/>
<path d="M2576 1758 c-36 -40 -66 -79 -66 -87 0 -15 79 -90 97 -91 30 -1 24
25 -12 56 -26 22 -36 37 -32 48 11 29 35 29 68 1 22 -18 35 -23 42 -16 8 8 1
21 -22 45 -52 53 -17 80 41 31 33 -28 43 -30 54 -14 6 11 -80 98 -98 99 -3 0
-36 -33 -72 -72z"/>
<path d="M4663 1781 c-40 -33 -41 -44 -7 -88 28 -37 59 -43 69 -13 12 38 85
34 85 -5 0 -20 -35 -45 -62 -45 -31 0 -41 -9 -27 -27 32 -37 114 4 125 64 5
26 1 37 -21 59 -22 22 -32 25 -62 21 -20 -4 -43 -13 -53 -22 -12 -11 -20 -13
-25 -6 -8 13 2 31 27 49 10 7 18 20 18 28 0 22 -32 16 -67 -15z"/>
<path d="M2850 1643 c-37 -15 -39 -62 -5 -117 17 -29 21 -44 14 -52 -15 -19
-56 3 -63 32 -9 34 -36 31 -36 -4 0 -60 86 -97 130 -57 26 24 25 41 -5 90 -13
22 -25 48 -25 58 0 25 25 21 48 -8 22 -27 52 -34 52 -11 0 39 -72 84 -110 69z"/>
<path d="M4420 1608 c-12 -14 -20 -33 -18 -48 4 -33 19 -32 36 3 9 18 21 27
38 27 29 0 32 -26 9 -90 -21 -59 -20 -100 3 -100 20 0 117 54 127 71 4 6 3 15
-3 21 -8 8 -22 4 -48 -11 -20 -12 -39 -19 -42 -16 -3 2 0 22 6 44 15 49 15 94
0 109 -21 21 -85 15 -108 -10z"/>
<path d="M3070 1527 c0 -8 9 -21 21 -28 l21 -14 -31 -78 c-17 -43 -29 -83 -25
-88 15 -24 38 2 66 74 27 71 32 77 55 75 45 -5 37 21 -12 42 -71 30 -95 35
-95 17z"/>
<path d="M4152 1487 c-40 -43 -23 -144 30 -181 26 -18 70 -21 98 -6 11 6 24
28 30 50 12 44 -4 97 -42 137 -29 31 -87 31 -116 0z m100 -39 c37 -58 28 -118
-17 -118 -48 0 -87 94 -53 128 19 19 54 14 70 -10z"/>
<path d="M3333 1451 c-10 -7 -47 -201 -39 -208 12 -12 124 -15 145 -4 26 14
61 68 61 94 0 29 -28 81 -50 95 -26 16 -105 31 -117 23z m102 -66 c29 -28 32
-61 9 -93 -12 -17 -25 -22 -61 -22 l-46 0 7 54 c3 30 9 61 12 70 9 24 52 19
79 -9z"/>
<path d="M3866 1419 c-27 -21 -36 -59 -13 -59 7 0 20 9 30 20 19 23 40 26 55
7 12 -15 2 -35 -50 -95 -15 -18 -28 -44 -28 -58 0 -26 0 -26 63 -19 82 9 97
13 97 31 0 12 -11 15 -47 14 -69 -3 -69 -3 -41 28 34 37 58 74 58 90 0 22 -47
62 -73 62 -13 0 -36 -9 -51 -21z"/>
<path d="M3762 959 c2 -6 8 -10 13 -10 5 0 11 4 13 10 2 6 -4 11 -13 11 -9 0
-15 -5 -13 -11z"/>
</g>
</svg>
